<svg id="Capa_1" enable-background="new 0 0 512.006 512.006" height="512" viewBox="0 0 512.006 512.006" width="512" xmlns="http://www.w3.org/2000/svg"><g><circle cx="286.006" cy="45.003" fill="#ffe1ba" r="45"/><path d="m331.006 45.003c0-24.814-20.186-45-45-45v90c24.814 0 45-20.186 45-45z" fill="#ffbfab"/><path d="m331.544 207.633c-16.254 23.527-32.305 52.139-45.538 83.192-17.227 40.424-29.548 87.093-30 131.177v30h30 30v-30c.37-42.66 15.945-95.649 42.885-144.782z" fill="#6b77e8"/><path d="m316.006 422.003c.37-42.66 15.945-95.649 42.885-144.782l-27.347-69.587c-16.254 23.527-32.305 52.139-45.538 83.192v161.177h30z" fill="#615ad3"/><path d="m467.006 422.003h-181-211c-8.291 0-15 6.709-15 15v45l30 30h196 181c24.814 0 45-20.186 45-45s-20.186-45-45-45z" fill="#613d5c"/><path d="m512.006 467.003c0-24.814-20.186-45-45-45h-181v90h181c24.814 0 45-20.186 45-45z" fill="#4b2746"/><path d="m452.749 298.992c-39.196-4.572-75.573-19.448-76.743-58.989-.536-52.313-17.725-103.088-49.259-147.363l-38.525 51.768c17.791 27.222 27.25 59.431 27.784 95.596 3.193 75.165 59.489 111.747 133.564 118.857 9.027.82 16.436-6.229 16.436-14.927v-30.044c0-7.618-5.699-14.019-13.257-14.898z" fill="#6b77e8"/><path d="m467.006 452.003h-181-211c-8.284 0-15 6.714-15 15 0 8.284 6.716 15 15 15h211 181c8.284 0 15-6.716 15-15 0-8.286-6.717-15-15-15z" fill="#dfe7f4"/><path d="m482.006 467.003c0-8.286-6.716-15-15-15h-181v30h181c8.283 0 15-6.716 15-15z" fill="#c7cfe1"/><path d="m60.387 191.619c-7.036 29.043-60.381 244.248-60.381 275.384 0 24.814 20.186 45 45 45h45v-317z" fill="#4b2746"/><path d="m128.297 238.421-120-60c-7.412-3.706-10.415-12.715-6.709-20.127s12.729-10.371 20.127-6.709l120 60c7.412 3.706 10.415 12.715 6.709 20.127-3.691 7.361-12.647 10.423-20.127 6.709z" fill="#613d5c"/><path d="m305.21 81.009c-7.229 0-13.914 2.745-19.204 7.181-4.497 3.774-8.026 8.727-9.595 14.718-9.346 29.121-27.524 46.289-50.405 47.095h-33.292c-26.602 0-49.206 17.388-57.052 41.398-3.023 9.256 4.849 18.602 14.588 18.604l77.148.013c21.39 0 41.327-7.375 58.608-20.273 20.744-15.48 37.601-39.051 47.71-69.185 6.575-18.946-7.89-39.551-28.506-39.551z" fill="#b2baff"/><path d="m333.716 120.559c6.575-18.946-7.89-39.551-28.506-39.551-7.229 0-13.914 2.745-19.204 7.181v101.554c20.744-15.479 37.6-39.05 47.71-69.184z" fill="#979fef"/></g></svg>